<svg xmlns="http://www.w3.org/2000/svg" viewBox="0 0 512 512">
  <path fill="white" d="M142.3 174.16 256 108.51l113.7 65.65L256 239.81Zm130.14 225.41 113.7-65.64V202.64l-113.69 65.65Zm-32.88 0V268.29l-113.7-65.65v131.29ZM82.42 307.2q0-42.81-44.39-50.57v-2.39q44.39-7.76 44.39-50.57v-58.73q0-38.41 45.8-39.62V77.65q-36.22 0-57.74 17.12t-21.5 48v60.92Q49 222.82 37.43 232T0 241.5v28.07q23.9 0 36.43 8.86T49 308v60.32Q49 399 69.68 415.9t58.54 17.32v-27.87q-22.5-.41-34.15-9.55t-11.65-29.47Zm391.15-49.44q-22.49 4-33.44 15.93t-10.95 34.64v59.13q0 20.31-11.55 29.46T384 406.48v27.87q37.83-.39 58.24-17.42t20.4-47.48v-60.33q0-20.7 12.55-29.56T512 270.7v-28.07q-25.89-.4-37.63-9.46t-11.75-28.37v-60.92q0-30.47-21-47.78T384 78.78v27.67q45.19 1.2 45.2 39.62v58.73q0 42.81 44.39 50.57Z"/>
</svg>
