<svg xmlns="http://www.w3.org/2000/svg" viewBox="0 0 512 356.7">
    <defs>
        <style>
            .side--top {fill:#009245;}
            .side--right {fill:#754c24;}
            .side--left {fill:#a67c52;}
            .brackets {fill:#3a3a3a;}
        </style>
    </defs>

    <polygon class="side--top" points="142.3 96.51 256 30.87 369.7 96.51 256.01 162.16 142.3 96.51"/>
    <polygon class="side--right" points="272.45 190.64 386.14 124.99 386.14 256.28 272.44 321.93 272.45 190.64"/>
    <polygon class="side--left" points="125.86 256.28 125.86 124.99 239.57 190.64 239.56 321.93 125.86 256.28"/>
    
    <path class="brackets" d="M82.42,288.68q0,20.31,11.65,29.47t34.15,9.55v27.88q-37.83-.4-58.54-17.32T49,290.67V230.35q0-20.7-12.55-29.57T0,191.92V163.85q25.88-.39,37.43-9.55T49,126V65.1q0-30.85,21.5-48T128.22,0V27.67q-45.79,1.2-45.8,39.62V126q0,42.79-44.39,50.56V179q44.39,7.77,44.39,50.57Zm391.15-111q-44.38-7.75-44.39-50.57V68.42Q429.18,30,384,28.8V1.13q36.63,0,57.64,17.32t21,47.78v60.92q0,19.32,11.75,28.37T512,165v28.07q-24.3,0-36.83,8.86t-12.55,29.57V291.8q0,30.46-20.4,47.49T384,356.7V328.83q22.11-.4,33.65-9.55t11.55-29.47V230.68q0-22.69,10.95-34.64t33.44-15.93Z"/>
</svg>