<svg id="Cube" xmlns="http://www.w3.org/2000/svg" viewBox="0 0 512 512"><defs><style>.cls-1{fill:#009245;}.cls-2{fill:#754c24;}.cls-3{fill:#a67c52;}.cls-4{fill:#333;}</style></defs><title>Монтажная область 1</title><polygon class="cls-1" points="142.3 174.16 256 108.51 369.7 174.16 256.01 239.81 142.3 174.16"/><polygon class="cls-2" points="272.45 268.29 386.14 202.64 386.14 333.93 272.44 399.57 272.45 268.29"/><polygon class="cls-3" points="125.86 333.93 125.86 202.64 239.57 268.29 239.56 399.57 125.86 333.93"/><path class="cls-4" d="M82.42,366.33q0,20.31,11.65,29.47t34.15,9.55v27.87q-37.83-.39-58.54-17.32T49,368.32V308q0-20.72-12.55-29.57T0,269.57V241.5q25.88-.39,37.43-9.56T49,203.67V142.75q0-30.85,21.5-48t57.74-17.12v27.67q-45.79,1.2-45.8,39.62v58.73q0,42.81-44.39,50.57v2.39q44.39,7.77,44.39,50.57Z"/><path class="cls-4" d="M473.57,255.37q-44.38-7.77-44.39-50.57V146.07q0-38.41-45.2-39.62V78.78q36.63,0,57.64,17.32t21,47.78V204.8q0,19.32,11.75,28.37T512,242.63V270.7q-24.3,0-36.83,8.86t-12.55,29.56v60.33q0,30.46-20.4,47.48T384,434.35V406.48q22.11-.41,33.65-9.56t11.55-29.46V308.33q0-22.69,10.95-34.64t33.44-15.93Z"/></svg>